<svg width="19" height="16" viewBox="0 0 19 16" fill="none" xmlns="http://www.w3.org/2000/svg">
<path d="M9.50432 3.36842C11.889 3.36842 13.8245 5.25474 13.8245 7.57895C13.8245 8.12632 13.7121 8.64 13.5134 9.12L16.0364 11.5789C17.3411 10.5179 18.3693 9.14526 19 7.57895C17.5052 3.88211 13.8158 1.26316 9.49568 1.26316C8.28604 1.26316 7.12824 1.47368 6.05684 1.85263L7.92315 3.67158C8.41564 3.47789 8.9427 3.36842 9.50432 3.36842ZM0.864029 1.06947L2.83402 2.98947L3.23147 3.37684C1.79718 4.46316 0.673943 5.91158 0 7.57895C1.49477 11.2758 5.18417 13.8947 9.50432 13.8947C10.8436 13.8947 12.1223 13.6421 13.2888 13.1874L13.6517 13.5411L16.1833 16L17.2806 14.9305L1.96135 0L0.864029 1.06947ZM5.64211 5.72632L6.98136 7.03158C6.93815 7.20842 6.91223 7.39368 6.91223 7.57895C6.91223 8.97684 8.07003 10.1053 9.50432 10.1053C9.69441 10.1053 9.88449 10.08 10.0659 10.0379L11.4052 11.3432C10.8263 11.6211 10.1869 11.7895 9.50432 11.7895C7.1196 11.7895 5.18417 9.90316 5.18417 7.57895C5.18417 6.91368 5.35698 6.29053 5.64211 5.72632ZM9.36608 5.06947L12.0878 7.72211L12.105 7.58737C12.105 6.18947 10.9472 5.06105 9.51296 5.06105L9.36608 5.06947Z" fill="#404040"/>
</svg>
